# xmcd CD Database Entry
#
# Track frame offsets:
# 150
# 13900
# 27767
# 41587
# 56297
# 68597
# 80025
# 92505
# 105020
# 118495
# 131257
# 143680
# 155910
# 168652
# 180785
# 194515
# 208017
# 221342
#
# Disc length: 3142 seconds
#
# Revision: 1
# Processed by: cddbd v1.4PL0 Copyright (c) Steve Scherf et al.
# Submitted via: tcd 2.0b
#
DISCID=f00c4412
DTITLE=Sonny Boy Williamson - The Blues 2
DYEAR=1900
DGENRE=
TTITLE0=Springtime Blues
TTITLE1=Coal and Icaman Blues
TTITLE2=Million Years Blues
TTITLE3=Sloppy Drunk Blues
TTITLE4=Groundhog Blues
TTITLE5=Black Panther Blues
TTITLE6=My Black Name Blues
TTITLE7=I Have Got to Go
TTITLE8=Blues That Made Me Drunk
TTITLE9=Miss Stella Brown Blues
TTITLE10=Check Upon My Baby Blues
TTITLE11=G.M. and O. Blues
TTITLE12=Sonny Boy's Jump
TTITLE13=Elevator Woman
TTITLE14=Early In The Morning
TTITLE15=The Big Boat
TTITLE16=Stop Breaking Down
TTITLE17=You're An Old Lady
EXTD=
EXTT0=
EXTT1=
EXTT2=
EXTT3=
EXTT4=
EXTT5=
EXTT6=
EXTT7=
EXTT8=
EXTT9=
EXTT10=
EXTT11=
EXTT12=
EXTT13=
EXTT14=
EXTT15=
EXTT16=
EXTT17=
PLAYORDER=
